<svg xmlns="http://www.w3.org/2000/svg" xmlns:svg="http://www.w3.org/2000/svg" xmlns:xlink="http://www.w3.org/1999/xlink" version="1.0" height="1430.0649368286133pt" width="1315.1927185058594pt" viewBox="90 27 1323.1927185058594 1436.0649368286133" ><defs><style type="text/css">
            @font-face {
                font-family: 'noto_regular';
                src: url('https://app.creately.com/diagram/assets/fonts/noto/noto-regular.woff') format('woff'),
                     url('https://app.creately.com/diagram/assets/fonts/noto/noto-regular.woff2') format('woff2');
                font-weight: normal;
                font-style: normal;
            }
        p {
            margin: 0;
        }
        </style></defs><defs><style>
            span{ display: inline-block; }
        </style></defs><g id="18kt4m24fs"><g transform="translate(95 124.95)"><path d="M 0,0 L 1315.1927185058594,0 L 1315.1927185058594,1335.1149368286133 L 0,1335.1149368286133 Z" fill="none" stroke="rgb(0, 0, 0)" stroke-width="1" stroke-linecap="round" stroke-linejoin="round"/><path d="M 0,23 L 1315.1927185058594,23 L 1315.1927185058594,1335.1149368286133 L 0,1335.1149368286133 Z" fill="rgb(255, 255, 255)" stroke="rgb(0, 0, 0)" stroke-width="1" stroke-linecap="round" stroke-linejoin="round" stroke-dasharray="0 0"/></g><g transform="translate(709.8465959347078, 129.95005593898816) rotate(0, 0, 0)" width="87" height="19"><text text-decoration="none" x="0" fill="#4b4b4b" font-size="11pt" font-family="Lato"  y="17">AWS&#160;</text><text text-decoration="none" x="36" fill="#4b4b4b" font-size="11pt" font-family="Lato"  y="17">Cloud&#160;</text><text text-decoration="none" x="80" fill="#4b4b4b" font-size="10pt" font-family="noto_regular"  y="17"></text></g></g><g id="1m1h5k40s1"><g transform="translate(140.1 274)"><path d="M 0,0 L 1089.950180053711,-8.951402530284786e-19 L 1089.950180053711,1075.7170104980469 L 8.834510187583154e-19,1075.7170104980469 Z" fill="none" stroke="rgb(0, 0, 0)" stroke-width="1" stroke-linecap="round" stroke-linejoin="round"/><path d="M 0,0 L 1089.950180053711,-8.951402530284786e-19 L 1089.950180053711,1075.7170104980469 L 8.834510187583154e-19,1075.7170104980469 Z" fill="rgb(255, 255, 255)" stroke="rgb(0, 0, 0)" stroke-width="1" stroke-linecap="round" stroke-linejoin="round" stroke-dasharray="3 3"/></g><g transform="translate(656.800085355982, 279.00007906711) rotate(0, 0, 0)" width="56" height="19"><text text-decoration="none" x="0" fill="#4b4b4b" font-size="11pt" font-family="Lato"  y="17">Region&#160;</text><text text-decoration="none" x="51" fill="#4b4b4b" font-size="10pt" font-family="noto_regular"  y="17"></text></g></g><g id="1zdqk7mfnu"><g transform="translate(685 179.9)"><path d="M 29.5,0 C 29.8,0 30.1,0.1 30.2,0.2 C 33.2,3.5 36.2,4.7 38.9,4.7 C 44.199999999999996,4.7 48.099999999999994,0.40000000000000036 48.3,0.20000000000000018 L 56.5,10.8 C 56.3,11.100000000000001 52.2,15.8 52.4,21.5 C 52.699999999999996,28.2 58.9,30.5 57.3,38.1 C 54.599999999999994,51.6 41.4,46.2 30.599999999999998,55 C 30.4,55.2 30.2,55.2 30.099999999999998,55.2 C 29.799999999999997,55.2 29.7,55 29.7,55 C 23.2,47 3.1,53.6 0.6,38.1 C -0.7999999999999999,29.5 4.3999999999999995,28.5 4.6,22.200000000000003 C 4.8,17.300000000000004 0.7999999999999998,12.100000000000003 0.5999999999999996,11.800000000000002 L 10.1,0.3000000000000025 C 10.299999999999999,0.5000000000000024 14.2,4.400000000000002 19.799999999999997,4.400000000000002 C 22.599999999999998,4.400000000000002 25.799999999999997,3.400000000000002 28.9,0.3000000000000025 C 29.1,0 29.3,0 29.5,0 Z" fill="rgb(245, 133, 54)"/></g><g transform="translate(673.5, 244.8) rotate(0, 0, 0)" width="101" height="19"><text text-decoration="none" x="0" fill="#4b4b4b" font-size="11pt" font-family="Lato"  y="17">Hosted&#160;</text><text text-decoration="none" x="53" fill="#4b4b4b" font-size="11pt" font-family="Lato"  y="17">Zone&#160;</text><text text-decoration="none" x="92" fill="#4b4b4b" font-size="10pt" font-family="noto_regular"  y="17"></text></g></g><g id="1n5o1p6ilr"><g transform="translate(1295 209.95)"><path d="M 28.9,0.8 C 44.9,0.8 57.9,3.9000000000000004 57.9,7.6 C 57.9,11.399999999999999 45,14.399999999999999 28.9,14.399999999999999 C 12.899999999999999,14.399999999999999 -0.10000000000000142,11.299999999999999 -0.10000000000000142,7.599999999999999 C -0.2,3.9 12.9,0.8 28.9,0.8 Z" fill="rgb(225, 83, 67)"/><path d="M 28.9,19.1 C 43.8,19.1 56.099999999999994,16.5 57.7,13.100000000000001 L 48.300000000000004,53.6 C 48.300000000000004,56.1 39.60000000000001,58.2 29.000000000000004,58.2 C 18.300000000000004,58.2 9.700000000000003,56.2 9.700000000000003,53.6 L 0.1,13.1 C 1.7,16.5 13.9,19.1 28.9,19.1 Z" fill="rgb(225, 83, 67)"/><path d="M 57.9,12.3 L 57.9,12.4 L 57.9,12.3 L 57.9,12.3 Z" fill="rgb(20, 110, 180)"/><path d="M 57.9,12.2 C 57.9,12.1 57.9,12.1 57.8,12 C 57.8,12 57.9,12.1 57.9,12.2 Z" fill="rgb(20, 110, 180)"/></g><g transform="translate(1311.65, 278.95) rotate(0, 0, 0)" width="25" height="19"><text text-decoration="none" x="0" fill="#4b4b4b" font-size="11pt" font-family="Lato"  y="17">S3&#160;</text><text text-decoration="none" x="21" fill="#4b4b4b" font-size="10pt" font-family="noto_regular"  y="17"></text></g></g><g id="1drc6x0yoq"><g transform="translate(1277.8 430)"><path d="M 2.4019354224205016,21.200323486328124 L 14.516044509410857,21.200323486328124 L 14.516044509410857,52.800805664062494 L 2.4019354224205016,52.800805664062494 Z" fill="rgb(118, 155, 63)"/><path d="M 21.617418801784513,26.700407409667967 L 34.25368776321411,26.700407409667967 L 34.25368776321411,52.800805664062494 L 21.617418801784513,52.800805664062494 Z" fill="rgb(118, 155, 63)"/><path d="M 52.52928336858749,17.800271606445314 L 52.52928336858749,52.800805664062494 L 41.35506205558777,52.800805664062494 L 41.35506205558777,17.900273132324216 C 41.45949403047562,18.000274658203125 43.548133528232576,19.40029602050781 46.785524749755865,19.40029602050781 C 48.45643634796142,19.40029602050781 50.440643870830534,19.000289916992188 52.52928336858749,17.800271606445314 Z" fill="rgb(118, 155, 63)"/><path d="M 0,54.500831604003906 L 55.035650765895845,54.500831604003906 L 55.035650765895845,63.50096893310547 L 0,63.50096893310547 Z" fill="rgb(118, 155, 63)"/><path d="M 46.57666079998017,1.8000274658203126 C 50.64950782060623,1.8000274658203126 53.991331017017366,4.900074768066407 53.991331017017366,8.800134277343751 C 53.991331017017366,12.700193786621094 50.64950782060623,15.900242614746094 46.57666079998017,15.900242614746094 C 42.5038137793541,15.900242614746094 39.16199058294296,12.700193786621092 39.16199058294296,8.800134277343751 C 39.16199058294296,4.900074768066409 42.5038137793541,1.8000274658203126 46.57666079998017,1.8000274658203126 Z" fill="rgb(234, 34, 39)"/></g><g transform="translate(1282.45, 503.5) rotate(0, 0, 0)" width="49" height="19"><text text-decoration="none" x="0" fill="#4b4b4b" font-size="11pt" font-family="Lato"  y="17">Alarm&#160;</text><text text-decoration="none" x="46" fill="#4b4b4b" font-size="10pt" font-family="noto_regular"  y="17"></text></g></g><g id="1eomp2spxc"><g transform="translate(1275 644.95)"><path d="M 26.6,61.6 L 19.6,59.7 L 12.9,52.1 L 20.3,52.7 Z" fill="rgb(122, 62, 101)" stroke="rgb(255, 255, 255)" stroke-width="0.5" stroke-miterlimit="10"/><path d="M 26.6,61.6 L 31.6,51.1 L 26.9,50.4 L 20.3,52.7 Z" fill="rgb(122, 62, 101)" stroke="rgb(255, 255, 255)" stroke-width="0.5" stroke-miterlimit="10"/><path d="M 10.4,56.6 L 6.4,55.5 L 2.7,51.3 L 6.7,51.3 Z" fill="rgb(122, 62, 101)" stroke="rgb(255, 255, 255)" stroke-width="0.5" stroke-miterlimit="10"/><path d="M 10.4,56.6 L 13.2,50.7 L 10.6,50.3 L 6.7,51.3 Z" fill="rgb(122, 62, 101)" stroke="rgb(255, 255, 255)" stroke-width="0.5" stroke-miterlimit="10"/><path d="M 0.3,50.7 L 4.4,51.6 L 4.4,14.9 L 0.3,17.2 Z" fill="rgb(122, 62, 101)" stroke="rgb(255, 255, 255)" stroke-width="0.5" stroke-miterlimit="10"/><path d="M 20,18.5 L 20,50.1 L 4.4,51.6 L 4.4,14.9 Z" fill="rgb(122, 62, 101)" stroke="rgb(255, 255, 255)" stroke-width="0.5" stroke-miterlimit="10"/><path d="M 9.4,52.6 L 16.3,54 L 16.3,9 L 9.4,12.5 Z" fill="rgb(122, 62, 101)" stroke="rgb(255, 255, 255)" stroke-width="0.5" stroke-miterlimit="10"/><path d="M 55.8,21.7 L 55.8,48.9 L 16.3,54 L 16.3,9 Z" fill="rgb(122, 62, 101)" stroke="rgb(255, 255, 255)" stroke-width="0.5" stroke-miterlimit="10"/><path d="M 48.6,68.1 L 38.7,65.3 L 29.2,54.6 L 39.7,55.4 Z" fill="rgb(122, 62, 101)" stroke="rgb(255, 255, 255)" stroke-width="0.5" stroke-miterlimit="10"/><path d="M 48.6,68.1 L 55.8,53.2 L 49.1,52.2 L 39.7,55.4 Z" fill="rgb(122, 62, 101)" stroke="rgb(255, 255, 255)" stroke-width="0.5" stroke-miterlimit="10"/><path d="M 24.1,55.5 L 34.3,57.5 L 34.3,0 L 24.1,5.1 Z" fill="rgb(122, 62, 101)" stroke="rgb(255, 255, 255)" stroke-width="0.5" stroke-miterlimit="10"/><path d="M 34.3,57.5 L 68.3,50.7 L 68.3,17 L 34.3,0 Z" fill="rgb(122, 62, 101)" stroke="rgb(255, 255, 255)" stroke-width="0.5" stroke-miterlimit="10"/></g><g transform="translate(1291.7, 723.0500000000001) rotate(0, 0, 0)" width="36" height="19"><text text-decoration="none" x="0" fill="#4b4b4b" font-size="11pt" font-family="Lato"  y="17">SNS&#160;</text><text text-decoration="none" x="31" fill="#4b4b4b" font-size="10pt" font-family="noto_regular"  y="17"></text></g></g><g id="28iod4t4pa"><g transform="translate(214.99999999999997 315)"><path d="M 0,0 L 955.0113773345947,1.7490597415431466e-13 L 955.0113773345945,976.3385009765627 L -1.7881193949152232e-13,976.3385009765625 Z" fill="none" stroke="rgb(0, 0, 0)" stroke-width="1" stroke-linecap="round" stroke-linejoin="round"/><path d="M -4.212345005539979e-15,23 L 955.0113773345947,23.000000000000174 L 955.0113773345945,976.3385009765627 L -1.7881193949152232e-13,976.3385009765625 Z" fill="rgb(255, 255, 255)" stroke="rgb(0, 0, 0)" stroke-width="1" stroke-linecap="round" stroke-linejoin="round" stroke-dasharray="0 0"/></g><g transform="translate(621.5548434087744, 319.99994111218604) rotate(0, 0, 0)" width="159" height="19"><text text-decoration="none" x="0" fill="#4b4b4b" font-size="11pt" font-family="Lato"  y="17">Virtual&#160;</text><text text-decoration="none" x="49" fill="#4b4b4b" font-size="11pt" font-family="Lato"  y="17">Private&#160;</text><text text-decoration="none" x="101" fill="#4b4b4b" font-size="11pt" font-family="Lato"  y="17">Cloud&#160;</text><text text-decoration="none" x="145" fill="#4b4b4b" font-size="10pt" font-family="noto_regular"  y="17"></text></g></g><g id="2jsdqp4xen"><g transform="translate(525 316.09999999999997)"><path d="M 27.6,0 C 42.900000000000006,0 55.3,12.3 55.3,27.4 C 55.3,42.5 42.9,54.8 27.6,54.8 C 12.4,54.9 0,42.6 0,27.5 C 0,12.3 12.4,0 27.6,0 Z" fill="rgb(245, 133, 54)"/><path d="M 4.7,30.4 L 4.7,29.7 C 4.7,26.7 7,22.799999999999997 10.3,21.299999999999997 C 10.6,14.8 16,9.6 22.6,9.6 C 27,9.6 31.1,12 33.2,15.7 C 34,15.299999999999999 35,15.1 35.900000000000006,15.1 C 39.300000000000004,15.1 42.00000000000001,17.5 42.60000000000001,20.7 C 47.20000000000001,21.599999999999998 50.50000000000001,26 50.50000000000001,29.7 L 50.50000000000001,30.4 C 50.50000000000001,34.9 45.800000000000004,38.8 40.50000000000001,38.8 L 14.7,38.8 C 9.4,38.8 4.7,34.8 4.7,30.4 Z" fill="rgb(255, 255, 255)"/><path d="M 33.9,18.9 L 32,20.2 L 31,18.099999999999998 C 29.5,14.799999999999997 26.2,12.699999999999998 22.6,12.699999999999998 C 20.1,12.699999999999998 17.900000000000002,13.699999999999998 16.1,15.399999999999999 C 14.400000000000002,17.099999999999998 13.400000000000002,19.4 13.400000000000002,21.9 L 13.400000000000002,23.599999999999998 L 12,24 C 9.7,24.7 7.8,27.7 7.8,29.7 L 7.8,30.4 C 7.8,32.9 10.8,35.699999999999996 14.6,35.699999999999996 L 40.5,35.699999999999996 C 44.4,35.699999999999996 47.3,32.8 47.3,30.399999999999995 L 47.3,29.699999999999996 C 47.3,27.199999999999996 44.5,23.899999999999995 41.3,23.699999999999996 L 39.699999999999996,23.499999999999996 L 39.599999999999994,21.799999999999997 C 39.49999999999999,19.799999999999997 37.89999999999999,18.299999999999997 35.89999999999999,18.299999999999997 C 35.2,18.2 34.5,18.5 33.9,18.9 Z" fill="rgb(245, 133, 54)"/></g><g transform="translate(517.175, 380.9) rotate(0, 35.5, 0)" width="71" height="37"><text text-decoration="none" x="8.5" fill="#4b4b4b" font-size="11pt" font-family="Lato"  y="16">Internet</text><text text-decoration="none" x="62.5" fill="#4b4b4b" font-size="11pt" font-family="Lato"  y="16"></text><text text-decoration="none" x="3.5" fill="#4b4b4b" font-size="11pt" font-family="Lato"  y="38">Gateway&#160;</text><text text-decoration="none" x="67.5" fill="#4b4b4b" font-size="10pt" font-family="noto_regular"  y="38"></text></g></g><g id="2502jkidis"><g transform="translate(744.8999999999999 380.19999999999993)"><path d="M 29.7,0.4 C 45.7,0.9 58.2,14.1 57.7,30 C 57.2,45.8 43.900000000000006,58.3 27.900000000000002,57.8 C 11.899999999999999,57.3 -0.6,44 -0.1,28.2 C 0.3,12.3 13.7,-0.1 29.7,0.4 Z" fill="rgb(245, 133, 54)"/><path d="M 47,18.5 L 38,18.5 L 38,16.7 L 35.2,20.2 L 33.900000000000006,18.4 L 21.200000000000006,26.5 L 32,26.5 L 32,24.6 L 38,26.8 L 38,23.5 L 47,23.5 L 47,32.5 L 38,32.5 L 38,29.2 L 32,31.4 L 32,29.5 L 21.2,29.5 L 34,37.6 L 35.2,35.7 L 38,39.300000000000004 L 38,37.50000000000001 L 47,37.50000000000001 L 47,46.50000000000001 L 38,46.50000000000001 L 38,42.900000000000006 L 31.8,41.400000000000006 L 32.6,39.60000000000001 L 17,29.5 L 17,35.5 L 7,35.5 L 7,20.5 L 17,20.5 L 17,26.5 L 32.7,16.4 L 31.700000000000003,14.599999999999998 L 37.900000000000006,13.099999999999998 L 37.900000000000006,9.5 L 46.900000000000006,9.5 L 47,18.5 L 47,18.5 Z" fill="rgb(255, 255, 255)"/></g><g transform="translate(729.4249999999998, 448.19999999999993) rotate(0, 44.5, 0)" width="89" height="37"><text text-decoration="none" x="4" fill="#4b4b4b" font-size="11pt" font-family="Lato"  y="16">Elastic&#160;</text><text text-decoration="none" x="51" fill="#4b4b4b" font-size="11pt" font-family="Lato"  y="16">Load</text><text text-decoration="none" x="85" fill="#4b4b4b" font-size="11pt" font-family="Lato"  y="16"></text><text text-decoration="none" x="9" fill="#4b4b4b" font-size="11pt" font-family="Lato"  y="38">Balancing&#160;</text><text text-decoration="none" x="80" fill="#4b4b4b" font-size="10pt" font-family="noto_regular"  y="38"></text></g></g><g id="6h24jsntjc"><g transform="translate(524.95 590.25)"><path d="M 0,0 L 609.9368572235107,0 L 609.9368572235107,682.5000667572021 L 0,682.5000667572021 Z" fill="none" stroke="rgb(0, 0, 0)" stroke-width="1" stroke-linecap="round" stroke-linejoin="round"/><path d="M 0.5,0.5 L 609.4368572235107,0.5 L 609.4368572235107,682.0000667572021 L 0.5,682.0000667572021 Z" fill="rgb(255, 255, 255)" stroke="rgb(247, 152, 31)" stroke-width="1" stroke-linecap="round" stroke-linejoin="round" stroke-dasharray="10 5"/></g><g transform="translate(771.5946853581096, 595.2500004890637) rotate(0, 0, 0)" width="129" height="19"><text text-decoration="none" x="0" fill="#4b4b4b" font-size="11pt" font-family="Lato"  y="17">Availability&#160;</text><text text-decoration="none" x="80" fill="#4b4b4b" font-size="11pt" font-family="Lato"  y="17">Zone&#160;</text><text text-decoration="none" x="119" fill="#4b4b4b" font-size="10pt" font-family="noto_regular"  y="17"></text></g></g><g id="2jdlu6dgcd"><g transform="translate(505.05 496.15000000000003)"><path d="M 0,0 L 530.1540565490723,0 L 530.1540565490723,705.0903034210205 L 0,705.0903034210205 Z" fill="none" stroke="rgb(0, 0, 0)" stroke-width="1" stroke-linecap="round" stroke-linejoin="round"/><path d="M 0.5,0.5 L 529.6540565490723,0.5 L 529.6540565490723,704.5903034210205 L 0.5,704.5903034210205 Z" fill="rgb(255, 255, 255)" stroke="rgb(247, 152, 31)" stroke-width="1" stroke-linecap="round" stroke-linejoin="round" stroke-dasharray="10 5"/></g></g><g id="dcjdjhy2pz"><g><path d="M 1295,239.95 L 1214.95,239.95 L 1214.95,585.1 L 1214.95,930.25 L 1134.95,930.25" fill="none" stroke="#a0a0a0" stroke-width="1.5" stroke-linecap="round" stroke-linejoin="round" stroke-dasharray="10 7"/></g></g><g id="66eegdrk8a"><g transform="translate(545 526.05)"><path d="M 0,0 L 450.11030197143555,0 L 450.11030197143555,160.05367994308472 L 0,160.05367994308472 Z" fill="none" stroke="rgb(0, 0, 0)" stroke-width="1" stroke-linecap="round" stroke-linejoin="round"/><path d="M 0,0 L 450.11030197143555,0 L 450.11030197143555,160.05367994308472 L 0,160.05367994308472 Z" fill="rgb(255, 255, 255)" stroke="rgb(0, 0, 0)" stroke-width="1" stroke-linecap="round" stroke-linejoin="round" stroke-dasharray="15 7 3 7"/></g><g transform="translate(686.9532489776611, 531.0501149622957) rotate(0, 0, 0)" width="188" height="19"><text text-decoration="none" x="0" fill="#4b4b4b" font-size="11pt" font-family="Lato"  y="17">Auto&#160;</text><text text-decoration="none" x="37" fill="#4b4b4b" font-size="11pt" font-family="Lato"  y="17">Scaling&#160;</text><text text-decoration="none" x="89" fill="#4b4b4b" font-size="11pt" font-family="Lato"  y="17">(WEB&#160;</text><text text-decoration="none" x="129" fill="#4b4b4b" font-size="11pt" font-family="Lato"  y="17">TIER)&#160;</text><text text-decoration="none" x="166" fill="#4b4b4b" font-size="10pt" font-family="noto_regular"  y="17"></text></g></g><g id="21hb4x40t0"><g transform="translate(744.95 716.1)"><path d="M 25.60351334810257,0.34482846260070804 C 39.396651852130894,0.775864040851593 50.17254130840302,12.155203306674958 49.741505730152134,25.8621346950531 C 49.31047015190125,39.48285896778106 37.844923770427705,50.25874842405319 24.051785266399385,49.8277128458023 C 10.258646762371063,49.39667726755142 -0.517242693901062,37.93113088607788 -0.08620711565017701,24.310406613349915 C 0.258621346950531,10.603475224971772 11.810374844074248,-0.08620711565017701 25.60351334810257,0.34482846260070804 Z" fill="rgb(245, 133, 54)"/><path d="M 40.51734435558319,15.948316395282745 L 32.75870394706726,15.948316395282745 L 32.75870394706726,14.396588313579558 L 30.344904708862305,17.413837361335755 L 29.22421220541001,15.862109279632568 L 18.27590851783753,22.844885647296906 L 27.58627700805664,22.844885647296906 L 27.58627700805664,21.206950449943545 L 32.75870394706726,23.103506994247436 L 32.75870394706726,20.258672177791595 L 40.51734435558319,20.258672177791595 L 40.51734435558319,28.017312586307526 L 32.75870394706726,28.017312586307526 L 32.75870394706726,25.172477769851685 L 27.58627700805664,27.069034314155576 L 27.58627700805664,25.431099116802216 L 18.275908517837525,25.431099116802216 L 29.31041932106018,32.41387548446655 L 30.344904708862305,30.77594028711319 L 32.75870394706726,33.879396450519565 L 32.75870394706726,32.32766836881638 L 40.51734435558319,32.32766836881638 L 40.51734435558319,40.08630877733231 L 32.75870394706726,40.08630877733231 L 32.75870394706726,36.982852613925935 L 27.413862776756286,35.68974587917328 L 28.103519701957705,34.1380177974701 L 14.65520966053009,25.431099116802216 L 14.65520966053009,30.603526055812836 L 6.03449809551239,30.603526055812836 L 6.03449809551239,17.672458708286285 L 14.65520966053009,17.672458708286285 L 14.65520966053009,22.844885647296906 L 28.18972681760788,14.137966966629028 L 27.32765566110611,12.58623888492584 L 32.672496831417085,11.293132150173186 L 32.672496831417085,8.189675986766815 L 40.431137239933015,8.189675986766815 L 40.51734435558319,15.948316395282745 L 40.51734435558319,15.948316395282745 Z" fill="rgb(255, 255, 255)"/></g><g transform="translate(694, 776.1) rotate(0, 76, 0)" width="152" height="37"><text text-decoration="none" x="7" fill="#4b4b4b" font-size="11pt" font-family="Lato"  y="16">Internal&#160;</text><text text-decoration="none" x="64" fill="#4b4b4b" font-size="11pt" font-family="Lato"  y="16">Elastic&#160;</text><text text-decoration="none" x="111" fill="#4b4b4b" font-size="11pt" font-family="Lato"  y="16">Load</text><text text-decoration="none" x="145" fill="#4b4b4b" font-size="11pt" font-family="Lato"  y="16"></text><text text-decoration="none" x="40.5" fill="#4b4b4b" font-size="11pt" font-family="Lato"  y="38">Balancing&#160;</text><text text-decoration="none" x="111.5" fill="#4b4b4b" font-size="10pt" font-family="noto_regular"  y="38"></text></g></g><g id="ot4cl5j7iu"><g transform="translate(580.0626373626376 551)"><path d="M 0,0 L 394.9999952316284,0 L 394.9999952316284,124.99963998794556 L 0,124.99963998794556 Z" fill="none" stroke="rgb(0, 0, 0)" stroke-width="1" stroke-linecap="round" stroke-linejoin="round"/><path d="M 1,1 L 393.9999952316284,1 L 393.9999952316284,123.99963998794556 L 1,123.99963998794556 Z" fill="rgb(255, 255, 255)" stroke="rgb(0, 0, 0)" stroke-width="2" stroke-linecap="round" stroke-linejoin="round" stroke-dasharray="0 0"/><path d="M 1,1 L 393.9999952316284,1 L 393.9999952316284,123.99963998794556 L 1,123.99963998794556 Z" fill="none" stroke="rgb(238, 29, 36)" stroke-width="2" stroke-linecap="round" stroke-linejoin="round" stroke-dasharray="10 7"/></g><g transform="translate(745.4626353659575, 555.9999855995178) rotate(0, 0, 0)" width="67" height="19"><text text-decoration="none" x="0" fill="#4b4b4b" font-size="11pt" font-family="Lato"  y="17">Security&#160;</text><text text-decoration="none" x="59" fill="#4b4b4b" font-size="10pt" font-family="noto_regular"  y="17"></text></g></g><g id="3xbyaw3im4"><g transform="translate(625.1 584.1499999999999)"><path d="M 46.5,-0.3 C 51.8,-0.3 56.1,3.9000000000000004 56.1,9.2 L 56.1,46.599999999999994 C 56.1,51.89999999999999 51.800000000000004,56.099999999999994 46.5,56.099999999999994 L 9.8,56.099999999999994 C 4.500000000000001,56.099999999999994 0.20000000000000107,51.89999999999999 0.20000000000000107,46.599999999999994 L 0.20000000000000107,9.2 C 0.20000000000000107,3.8999999999999995 4.500000000000001,-0.3000000000000007 9.8,-0.3000000000000007 C 9.8,-0.3 46.5,-0.3 46.5,-0.3 Z" fill="rgb(245, 133, 54)"/></g><g transform="translate(626.75, 650.1499999999999) rotate(0, 0, 0)" width="69" height="19"><text text-decoration="none" x="0" fill="#4b4b4b" font-size="11pt" font-family="Lato"  y="17">Instance&#160;</text><text text-decoration="none" x="61" fill="#4b4b4b" font-size="10pt" font-family="noto_regular"  y="17"></text></g></g><g id="57tbk75vp1"><g transform="translate(745.1 584.1499999999999)"><path d="M 46.5,-0.3 C 51.8,-0.3 56.1,3.9000000000000004 56.1,9.2 L 56.1,46.599999999999994 C 56.1,51.89999999999999 51.800000000000004,56.099999999999994 46.5,56.099999999999994 L 9.8,56.099999999999994 C 4.500000000000001,56.099999999999994 0.20000000000000107,51.89999999999999 0.20000000000000107,46.599999999999994 L 0.20000000000000107,9.2 C 0.20000000000000107,3.8999999999999995 4.500000000000001,-0.3000000000000007 9.8,-0.3000000000000007 C 9.8,-0.3 46.5,-0.3 46.5,-0.3 Z" fill="rgb(245, 133, 54)"/></g><g transform="translate(746.75, 650.1499999999999) rotate(0, 0, 0)" width="69" height="19"><text text-decoration="none" x="0" fill="#4b4b4b" font-size="11pt" font-family="Lato"  y="17">Instance&#160;</text><text text-decoration="none" x="61" fill="#4b4b4b" font-size="10pt" font-family="noto_regular"  y="17"></text></g></g><g id="2piw4g7edp"><g transform="translate(855.1 584.1499999999999)"><path d="M 46.5,-0.3 C 51.8,-0.3 56.1,3.9000000000000004 56.1,9.2 L 56.1,46.599999999999994 C 56.1,51.89999999999999 51.800000000000004,56.099999999999994 46.5,56.099999999999994 L 9.8,56.099999999999994 C 4.500000000000001,56.099999999999994 0.20000000000000107,51.89999999999999 0.20000000000000107,46.599999999999994 L 0.20000000000000107,9.2 C 0.20000000000000107,3.8999999999999995 4.500000000000001,-0.3000000000000007 9.8,-0.3000000000000007 C 9.8,-0.3 46.5,-0.3 46.5,-0.3 Z" fill="rgb(245, 133, 54)"/></g><g transform="translate(856.75, 650.1499999999999) rotate(0, 0, 0)" width="69" height="19"><text text-decoration="none" x="0" fill="#4b4b4b" font-size="11pt" font-family="Lato"  y="17">Instance&#160;</text><text text-decoration="none" x="61" fill="#4b4b4b" font-size="10pt" font-family="noto_regular"  y="17"></text></g></g><g id="iibhz9pmzh"><g transform="translate(550.05 831.1000000000004)"><path d="M 0,0 L 450.11030197143555,0 L 450.11030197143555,160.05367994308472 L 0,160.05367994308472 Z" fill="none" stroke="rgb(0, 0, 0)" stroke-width="1" stroke-linecap="round" stroke-linejoin="round"/><path d="M 0,0 L 450.11030197143555,0 L 450.11030197143555,160.05367994308472 L 0,160.05367994308472 Z" fill="rgb(255, 255, 255)" stroke="rgb(0, 0, 0)" stroke-width="1" stroke-linecap="round" stroke-linejoin="round" stroke-dasharray="15 7 3 7"/></g><g transform="translate(662.7025783538818, 836.1001149622961) rotate(0, 0, 0)" width="249" height="19"><text text-decoration="none" x="0" fill="#4b4b4b" font-size="11pt" font-family="Lato"  y="17">Auto&#160;</text><text text-decoration="none" x="37" fill="#4b4b4b" font-size="11pt" font-family="Lato"  y="17">Scaling&#160;</text><text text-decoration="none" x="89" fill="#4b4b4b" font-size="11pt" font-family="Lato"  y="17">(APPLICATION&#160;</text><text text-decoration="none" x="191" fill="#4b4b4b" font-size="11pt" font-family="Lato"  y="17">TIER)&#160;</text><text text-decoration="none" x="228" fill="#4b4b4b" font-size="10pt" font-family="noto_regular"  y="17"></text></g></g><g id="1jbgb427zb"><g transform="translate(585.1126373626374 856.1000000000006)"><path d="M 0,0 L 394.9999952316284,0 L 394.9999952316284,124.99963998794556 L 0,124.99963998794556 Z" fill="none" stroke="rgb(0, 0, 0)" stroke-width="1" stroke-linecap="round" stroke-linejoin="round"/><path d="M 1,1 L 393.9999952316284,1 L 393.9999952316284,123.99963998794556 L 1,123.99963998794556 Z" fill="rgb(255, 255, 255)" stroke="rgb(0, 0, 0)" stroke-width="2" stroke-linecap="round" stroke-linejoin="round" stroke-dasharray="0 0"/><path d="M 1,1 L 393.9999952316284,1 L 393.9999952316284,123.99963998794556 L 1,123.99963998794556 Z" fill="none" stroke="rgb(238, 29, 36)" stroke-width="2" stroke-linecap="round" stroke-linejoin="round" stroke-dasharray="10 7"/></g><g transform="translate(750.5126353659573, 861.0999855995184) rotate(0, 0, 0)" width="67" height="19"><text text-decoration="none" x="0" fill="#4b4b4b" font-size="11pt" font-family="Lato"  y="17">Security&#160;</text><text text-decoration="none" x="59" fill="#4b4b4b" font-size="10pt" font-family="noto_regular"  y="17"></text></g></g><g id="538hgl0icq"><g transform="translate(630.0499999999998 889.2000000000006)"><path d="M 46.5,-0.3 C 51.8,-0.3 56.1,3.9000000000000004 56.1,9.2 L 56.1,46.599999999999994 C 56.1,51.89999999999999 51.800000000000004,56.099999999999994 46.5,56.099999999999994 L 9.8,56.099999999999994 C 4.500000000000001,56.099999999999994 0.20000000000000107,51.89999999999999 0.20000000000000107,46.599999999999994 L 0.20000000000000107,9.2 C 0.20000000000000107,3.8999999999999995 4.500000000000001,-0.3000000000000007 9.8,-0.3000000000000007 C 9.8,-0.3 46.5,-0.3 46.5,-0.3 Z" fill="rgb(245, 133, 54)"/></g><g transform="translate(631.6999999999998, 955.2000000000006) rotate(0, 0, 0)" width="69" height="19"><text text-decoration="none" x="0" fill="#4b4b4b" font-size="11pt" font-family="Lato"  y="17">Instance&#160;</text><text text-decoration="none" x="61" fill="#4b4b4b" font-size="10pt" font-family="noto_regular"  y="17"></text></g></g><g id="a7i4nfflrh"><g transform="translate(745.05 889.2000000000006)"><path d="M 46.5,-0.3 C 51.8,-0.3 56.1,3.9000000000000004 56.1,9.2 L 56.1,46.599999999999994 C 56.1,51.89999999999999 51.800000000000004,56.099999999999994 46.5,56.099999999999994 L 9.8,56.099999999999994 C 4.500000000000001,56.099999999999994 0.20000000000000107,51.89999999999999 0.20000000000000107,46.599999999999994 L 0.20000000000000107,9.2 C 0.20000000000000107,3.8999999999999995 4.500000000000001,-0.3000000000000007 9.8,-0.3000000000000007 C 9.8,-0.3 46.5,-0.3 46.5,-0.3 Z" fill="rgb(245, 133, 54)"/></g><g transform="translate(746.6999999999999, 955.2000000000006) rotate(0, 0, 0)" width="69" height="19"><text text-decoration="none" x="0" fill="#4b4b4b" font-size="11pt" font-family="Lato"  y="17">Instance&#160;</text><text text-decoration="none" x="61" fill="#4b4b4b" font-size="10pt" font-family="noto_regular"  y="17"></text></g></g><g id="223qhwazkm"><g transform="translate(860.05 889.2000000000006)"><path d="M 46.5,-0.3 C 51.8,-0.3 56.1,3.9000000000000004 56.1,9.2 L 56.1,46.599999999999994 C 56.1,51.89999999999999 51.800000000000004,56.099999999999994 46.5,56.099999999999994 L 9.8,56.099999999999994 C 4.500000000000001,56.099999999999994 0.20000000000000107,51.89999999999999 0.20000000000000107,46.599999999999994 L 0.20000000000000107,9.2 C 0.20000000000000107,3.8999999999999995 4.500000000000001,-0.3000000000000007 9.8,-0.3000000000000007 C 9.8,-0.3 46.5,-0.3 46.5,-0.3 Z" fill="rgb(245, 133, 54)"/></g><g transform="translate(861.6999999999999, 955.2000000000006) rotate(0, 0, 0)" width="69" height="19"><text text-decoration="none" x="0" fill="#4b4b4b" font-size="11pt" font-family="Lato"  y="17">Instance&#160;</text><text text-decoration="none" x="61" fill="#4b4b4b" font-size="10pt" font-family="noto_regular"  y="17"></text></g></g><g id="66ee0hrhds"><g><path d="M 769.95,716.1 L 769.95,701.1000000000001 L 769.975,701.1000000000001 L 770,701.1000000000001 L 770,686.05" fill="none" stroke="#a0a0a0" stroke-width="1.5" stroke-linecap="round" stroke-linejoin="round"/><path d="M 769.95,716.1 L 764.2,724.795652173913 L 775.7,724.795652173913 Z" fill="rgb(160,160,160)" stroke="#a0a0a0" stroke-width="1.5" stroke-linecap="round" stroke-linejoin="round"/></g></g><g id="6zo9qa23di"><g><path d="M 774.8999999999999,380.19999999999993 L 774.8999999999999,307.5 L 744.9499999999999,307.5 L 715,307.5 L 715,234.9" fill="none" stroke="#a0a0a0" stroke-width="1.5" stroke-linecap="round" stroke-linejoin="round" stroke-dasharray="10 7"/><path d="M 774.8999999999999,380.19999999999993 L 769.1499999999999,388.895652173913 L 780.6499999999999,388.895652173913 Z" fill="rgb(160,160,160)" stroke="#a0a0a0" stroke-width="1.5" stroke-linecap="round" stroke-linejoin="round"/></g></g><g id="1ek7whg6xi"><g><path d="M 774.8999999999999,440.19999999999993 L 774.8999999999999,482.12499999999994 L 772.4499999999999,482.12499999999994 L 770,482.12499999999994 L 770,526.05" fill="none" stroke="#a0a0a0" stroke-width="1.5" stroke-linecap="round" stroke-linejoin="round" stroke-dasharray="10 7"/><path d="M 770,526.05 L 775.75,517.354347826087 L 764.25,517.354347826087 Z" fill="rgb(160,160,160)" stroke="#a0a0a0" stroke-width="1.5" stroke-linecap="round" stroke-linejoin="round"/></g></g><g id="2oydu5oskc"><g transform="translate(454.99999999999994 386.1499999999999)"><path d="M 0,0 L 49.30769318938255,0 L 49.30769318938255,13.350000000000001 L 0,13.350000000000001 Z" fill="rgb(245, 133, 54)"/><path d="M 0,15.825000000000001 L 49.30769318938255,15.825000000000001 L 49.30769318938255,29.175000000000004 L 0,29.175000000000004 Z" fill="rgb(245, 133, 54)"/><path d="M 0,31.049999999999997 L 49.30769318938255,31.049999999999997 L 49.30769318938255,44.400000000000006 L 0,44.400000000000006 Z" fill="rgb(245, 133, 54)"/></g><g transform="translate(434.0249999999999, 441.1499999999999) rotate(0, 46, 0)" width="92" height="37"><text text-decoration="none" x="25" fill="#4b4b4b" font-size="11pt" font-family="Lato"  y="16">Public</text><text text-decoration="none" x="67" fill="#4b4b4b" font-size="11pt" font-family="Lato"  y="16"></text><text text-decoration="none" x="3.5" fill="#4b4b4b" font-size="11pt" font-family="Lato"  y="38">Route&#160;</text><text text-decoration="none" x="47.5" fill="#4b4b4b" font-size="11pt" font-family="Lato"  y="38">Table&#160;</text><text text-decoration="none" x="88.5" fill="#4b4b4b" font-size="10pt" font-family="noto_regular"  y="38"></text></g><g transform="translate(458.04999999999995, 386.8999999999999) rotate(0, 0, 0)" width="65" height="19"><text text-decoration="none" x="0" fill="#ffffff" font-size="8pt" font-family="Lato"  y="17">172.16.0.0&#160;</text><text text-decoration="none" x="54" fill="#4b4b4b" font-size="10pt" font-family="noto_regular"  y="17"></text></g><g transform="translate(458.04999999999995, 402.6499999999999) rotate(0, 0, 0)" width="65" height="19"><text text-decoration="none" x="0" fill="#ffffff" font-size="8pt" font-family="Lato"  y="17">172.16.1.0&#160;</text><text text-decoration="none" x="54" fill="#4b4b4b" font-size="10pt" font-family="noto_regular"  y="17"></text></g><g transform="translate(458.04999999999995, 417.6499999999999) rotate(0, 0, 0)" width="65" height="19"><text text-decoration="none" x="0" fill="#ffffff" font-size="8pt" font-family="Lato"  y="17">172.16.2.0&#160;</text><text text-decoration="none" x="54" fill="#4b4b4b" font-size="10pt" font-family="noto_regular"  y="17"></text></g></g><g id="6f6r95leo8"><g transform="translate(354.99999999999994 961.1000000000001)"><path d="M 0,0 L 64.1,0 L 64.1,17.8 L 0,17.8 Z" fill="rgb(245, 133, 54)"/><path d="M 0,21.1 L 64.1,21.1 L 64.1,38.900000000000006 L 0,38.900000000000006 Z" fill="rgb(245, 133, 54)"/><path d="M 0,41.4 L 64.1,41.4 L 64.1,59.2 L 0,59.2 Z" fill="rgb(245, 133, 54)"/></g><g transform="translate(341.5249999999999, 1031.1000000000001) rotate(0, 46, 0)" width="92" height="37"><text text-decoration="none" x="22" fill="#4b4b4b" font-size="11pt" font-family="Lato"  y="16">Private</text><text text-decoration="none" x="70" fill="#4b4b4b" font-size="11pt" font-family="Lato"  y="16"></text><text text-decoration="none" x="3.5" fill="#4b4b4b" font-size="11pt" font-family="Lato"  y="38">Route&#160;</text><text text-decoration="none" x="47.5" fill="#4b4b4b" font-size="11pt" font-family="Lato"  y="38">Table&#160;</text><text text-decoration="none" x="88.5" fill="#4b4b4b" font-size="10pt" font-family="noto_regular"  y="38"></text></g><g transform="translate(358.99999999999994, 962.1000000000001) rotate(0, 0, 0)" width="65" height="19"><text text-decoration="none" x="0" fill="#ffffff" font-size="8pt" font-family="Lato"  y="17">172.16.0.0&#160;</text><text text-decoration="none" x="54" fill="#4b4b4b" font-size="10pt" font-family="noto_regular"  y="17"></text></g><g transform="translate(358.99999999999994, 983.1000000000001) rotate(0, 0, 0)" width="65" height="19"><text text-decoration="none" x="0" fill="#ffffff" font-size="8pt" font-family="Lato"  y="17">172.16.1.0&#160;</text><text text-decoration="none" x="54" fill="#4b4b4b" font-size="10pt" font-family="noto_regular"  y="17"></text></g><g transform="translate(358.99999999999994, 1003.1000000000001) rotate(0, 0, 0)" width="65" height="19"><text text-decoration="none" x="0" fill="#ffffff" font-size="8pt" font-family="Lato"  y="17">172.16.2.0&#160;</text><text text-decoration="none" x="54" fill="#4b4b4b" font-size="10pt" font-family="noto_regular"  y="17"></text></g></g><g id="30r3xqufy5"><g transform="translate(1270 35)"><path d="M 31.4,23.9 L 42.6,23 L 42.6,8.9 L 31.4,11.8 Z" fill="rgb(224, 82, 67)" stroke="rgb(255, 255, 255)" stroke-width="0.5" stroke-miterlimit="10"/><path d="M 35.8,22.1 L 24.1,20.4 L 24.1,-0.3 L 35.8,5.6 Z" fill="rgb(224, 82, 67)" stroke="rgb(255, 255, 255)" stroke-width="0.5" stroke-miterlimit="10"/><path d="M 48.4,23.9 L 42.6,23.1 L 42.6,8.9 L 48.4,11.8 Z" fill="rgb(224, 82, 67)" stroke="rgb(255, 255, 255)" stroke-width="0.5" stroke-miterlimit="10"/><path d="M 31.4,23.9 L 42.5,23 L 48.4,23.9 L 37.7,24.5 Z" fill="rgb(224, 82, 67)" stroke="rgb(255, 255, 255)" stroke-width="0.5" stroke-miterlimit="10"/><path d="M 31.4,33.8 L 42.6,34.7 L 42.6,48.8 L 31.4,45.9 Z" fill="rgb(224, 82, 67)" stroke="rgb(255, 255, 255)" stroke-width="0.5" stroke-miterlimit="10"/><path d="M 35.8,35.6 L 24.1,37.3 L 24.1,58 L 35.8,52.1 Z" fill="rgb(224, 82, 67)" stroke="rgb(255, 255, 255)" stroke-width="0.5" stroke-miterlimit="10"/><path d="M 48.3,33.8 L 42.5,34.7 L 42.5,48.8 L 48.3,45.9 Z" fill="rgb(224, 82, 67)" stroke="rgb(255, 255, 255)" stroke-width="0.5" stroke-miterlimit="10"/><path d="M 31.4,33.8 L 42.5,34.7 L 48.4,33.8 L 37.7,33.2 Z" fill="rgb(224, 82, 67)" stroke="rgb(255, 255, 255)" stroke-width="0.5" stroke-miterlimit="10"/><path d="M 16.9,23.9 L 5.7,23 L 5.7,8.9 L 16.9,11.8 Z" fill="rgb(224, 82, 67)" stroke="rgb(255, 255, 255)" stroke-width="0.5" stroke-miterlimit="10"/><path d="M 12.5,22.1 L 24.2,20.4 L 24.2,-0.3 L 12.5,5.6 Z" fill="rgb(224, 82, 67)" stroke="rgb(255, 255, 255)" stroke-width="0.5" stroke-miterlimit="10"/><path d="M 0,23.9 L 5.8,23.1 L 5.8,8.9 L 0,11.8 Z" fill="rgb(224, 82, 67)" stroke="rgb(255, 255, 255)" stroke-width="0.5" stroke-miterlimit="10"/><path d="M 17,23.9 L 6,23 L 0,23.9 L 10.7,24.5 Z" fill="rgb(224, 82, 67)" stroke="rgb(255, 255, 255)" stroke-width="0.5" stroke-miterlimit="10"/><path d="M 16.9,33.8 L 5.7,34.7 L 5.7,48.8 L 16.9,45.9 Z" fill="rgb(224, 82, 67)" stroke="rgb(255, 255, 255)" stroke-width="0.5" stroke-miterlimit="10"/><path d="M 12.5,35.6 L 24.2,37.3 L 24.2,58 L 12.5,52.1 Z" fill="rgb(224, 82, 67)" stroke="rgb(255, 255, 255)" stroke-width="0.5" stroke-miterlimit="10"/><path d="M 0,33.8 L 5.8,34.7 L 5.8,48.8 L 0,45.9 Z" fill="rgb(224, 82, 67)" stroke="rgb(255, 255, 255)" stroke-width="0.5" stroke-miterlimit="10"/><path d="M 17,33.8 L 6,34.7 L 0,33.8 L 10.7,33.2 Z" fill="rgb(224, 82, 67)" stroke="rgb(255, 255, 255)" stroke-width="0.5" stroke-miterlimit="10"/><path d="M 35.9,35.6 L 24.2,34.5 L 12.5,35.6 L 24.2,37.4 Z" fill="rgb(224, 82, 67)" stroke="rgb(255, 255, 255)" stroke-width="0.5" stroke-miterlimit="10"/><path d="M 35.9,22.1 L 24.2,23.2 L 12.5,22.1 L 24.2,20.4 Z" fill="rgb(224, 82, 67)" stroke="rgb(255, 255, 255)" stroke-width="0.5" stroke-miterlimit="10"/></g><g transform="translate(1258.7, 103) rotate(0, 0, 0)" width="87" height="19"><text text-decoration="none" x="0" fill="#4b4b4b" font-size="11pt" font-family="Lato"  y="17">CloudFront&#160;</text><text text-decoration="none" x="81" fill="#4b4b4b" font-size="10pt" font-family="noto_regular"  y="17"></text></g></g><g id="f322e1s7y1"><g transform="translate(664.95 30)"><path d="M 27.2,0 C 34.5,0 40.8,4.3 43.599999999999994,10.6 C 45,9.6 46.8,9 48.8,9 C 53.8,9 57.8,12.9 57.9,17.8 C 65,18.400000000000002 70.5,25.200000000000003 70.5,30.700000000000003 L 70.5,31.900000000000002 C 70.5,37.800000000000004 64.1,43.7 56.2,43.7 L 14.3,43.7 C 6.4,43.7 0.10000000000000142,37.800000000000004 0.10000000000000142,31.900000000000002 L 0.10000000000000142,30.700000000000003 C 0.10000000000000142,26.200000000000003 3.9000000000000012,20.000000000000004 9.200000000000001,18.500000000000004 C 9.200000000000001,18.300000000000004 9.200000000000001,18.200000000000003 9.200000000000001,18.000000000000004 C 9.2,8 17.2,0 27.2,0 Z" fill="rgb(197, 198, 199)"/></g><g transform="translate(670.95, 83.7) rotate(0, 0, 0)" width="65" height="19"><text text-decoration="none" x="0" fill="#4b4b4b" font-size="11pt" font-family="Lato"  y="17">Internet&#160;</text><text text-decoration="none" x="58" fill="#4b4b4b" font-size="10pt" font-family="noto_regular"  y="17"></text></g></g><g id="2cp8694wyu"><g><path d="M 1295,95 L 1295,151.475 L 1310,151.475 L 1325,151.475 L 1325,209.95" fill="none" stroke="#a0a0a0" stroke-width="1.5" stroke-linecap="round" stroke-linejoin="round"/><path d="M 1295,95 L 1300.75,86.30434782608695 L 1289.25,86.30434782608695 Z" fill="rgb(160,160,160)" stroke="#a0a0a0" stroke-width="1.5" stroke-linecap="round" stroke-linejoin="round"/><path d="M 1325,209.95 L 1330.75,201.25434782608696 L 1319.25,201.25434782608696 Z" fill="rgb(160,160,160)" stroke="#a0a0a0" stroke-width="1.5" stroke-linecap="round" stroke-linejoin="round"/></g></g><g id="d89psaz2ja"><g><path d="M 1277.8,460 L 1253.925,460 L 1253.925,424.5 L 1253.925,389 L 1230.1,389" fill="none" stroke="#a0a0a0" stroke-width="1.5" stroke-linecap="round" stroke-linejoin="round" stroke-dasharray="10 7"/><path d="M 1277.8,460 L 1286.495652173913,465.75 L 1286.495652173913,454.25 Z" fill="rgb(160,160,160)" stroke="#a0a0a0" stroke-width="1.5" stroke-linecap="round" stroke-linejoin="round"/><path d="M 1230.1,389 L 1238.795652173913,394.75 L 1238.795652173913,383.25 Z" fill="rgb(160,160,160)" stroke="#a0a0a0" stroke-width="1.5" stroke-linecap="round" stroke-linejoin="round"/></g></g><g id="2kicfic0jr"><g><path d="M 1275,679.95 L 1252.525,679.95 L 1252.525,746.975 L 1252.525,814 L 1230.1,814" fill="none" stroke="#a0a0a0" stroke-width="1.5" stroke-linecap="round" stroke-linejoin="round" stroke-dasharray="10 7"/><path d="M 1275,679.95 L 1283.695652173913,685.7 L 1283.695652173913,674.2 Z" fill="rgb(160,160,160)" stroke="#a0a0a0" stroke-width="1.5" stroke-linecap="round" stroke-linejoin="round"/><path d="M 1230.1,814 L 1238.795652173913,819.75 L 1238.795652173913,808.25 Z" fill="rgb(160,160,160)" stroke="#a0a0a0" stroke-width="1.5" stroke-linecap="round" stroke-linejoin="round"/></g></g><g id="28t1d2ho2a"><g transform="translate(1059.95 1061.1)"><path d="M 22.7,0.5 C 27.2,0.5 31.1,0.9 34.2,1.4 C 41,2.6 44.7,4.7 44.7,6 C 44.7,7.3 41.1,9.4 34.300000000000004,10.6 C 31.100000000000005,11.2 27.300000000000004,11.5 22.800000000000004,11.5 C 8.600000000000005,11.5 0.8000000000000043,7.9 0.8000000000000043,6 C 0.8,4.1 8.5,0.5 22.7,0.5 Z" fill="rgb(46, 115, 183)"/><path d="M 34,15 C 33.4,15.1 32.8,15.2 32.2,15.3 C 31.900000000000002,15.3 31.6,15.4 31.300000000000004,15.4 C 30.700000000000003,15.5 30.200000000000003,15.5 29.600000000000005,15.6 C 29.200000000000006,15.6 28.900000000000006,15.7 28.500000000000004,15.7 C 27.800000000000004,15.799999999999999 27.000000000000004,15.799999999999999 26.300000000000004,15.799999999999999 L 25.900000000000006,15.799999999999999 C 25.000000000000007,15.799999999999999 24.100000000000005,15.899999999999999 23.200000000000006,15.899999999999999 C 23.000000000000007,15.899999999999999 22.800000000000008,15.899999999999999 22.600000000000005,15.899999999999999 C 13.900000000000006,15.899999999999999 5.100000000000005,14.399999999999999 0.8000000000000043,11.499999999999998 L 0.8000000000000043,52.7 C 1.0000000000000042,53.6 3.100000000000004,54.7 6.000000000000004,55.7 C 9.9,56.9 16,58 24,58 C 38.6,58 44.7,54.4 44.7,52.5 L 44.7,11.1 C 42.5,12.8 38.8,14.2 34,15 Z" fill="rgb(46, 115, 183)"/><path d="M 17,39.4 C 17,43 19.8,44.4 23.1,44.4 C 25.200000000000003,44.4 28.400000000000002,43.8 28.400000000000002,41 C 28.400000000000002,38.1 24.300000000000004,37.6 20.200000000000003,36.5 C 16.1,35.4 12,33.9 12,28.7 C 12,23.1 17.3,20.5 22.3,20.5 C 28,20.5 33.3,23 33.3,29.3 L 27.499999999999996,29.3 C 27.299999999999997,26 24.999999999999996,25.200000000000003 22.099999999999994,25.200000000000003 C 20.199999999999996,25.200000000000003 17.899999999999995,26.000000000000004 17.899999999999995,28.300000000000004 C 17.899999999999995,30.400000000000006 19.199999999999996,30.700000000000003 26.099999999999994,32.400000000000006 C 28.099999999999994,32.900000000000006 34.3,34.2 34.3,40.300000000000004 C 34.3,45.300000000000004 30.299999999999997,49 22.9,49 C 16.799999999999997,49 11.099999999999998,46 11.2,39.3 C 11.2,39.4 17,39.4 17,39.4 Z" fill="rgb(255, 255, 255)"/></g><g transform="translate(1037.075, 1129.1) rotate(0, 45.5, 0)" width="91" height="37"><text text-decoration="none" x="4.5" fill="#4b4b4b" font-size="11pt" font-family="Lato"  y="16">DB&#160;</text><text text-decoration="none" x="29.5" fill="#4b4b4b" font-size="11pt" font-family="Lato"  y="16">Instance</text><text text-decoration="none" x="86.5" fill="#4b4b4b" font-size="11pt" font-family="Lato"  y="16"></text><text text-decoration="none" x="15.5" fill="#4b4b4b" font-size="11pt" font-family="Lato"  y="38">Standby&#160;</text><text text-decoration="none" x="75.5" fill="#4b4b4b" font-size="10pt" font-family="noto_regular"  y="38"></text></g></g><g id="23dufoajvz"><g transform="translate(239.89999999999998 445.25000000000006)"><path d="M 0,0 L 200.00439405441284,0 L 200.00439405441284,465.01017570495605 L 0,465.01017570495605 Z" fill="none" stroke="rgb(0, 0, 0)" stroke-width="1" stroke-linecap="round" stroke-linejoin="round"/><path d="M 0.5,0.5 L 199.50439405441284,0.5 L 199.50439405441284,464.51017570495605 L 0.5,464.51017570495605 Z" fill="rgb(255, 255, 255)" stroke="rgb(247, 152, 31)" stroke-width="1" stroke-linecap="round" stroke-linejoin="round" stroke-dasharray="10 5"/></g><g transform="translate(281.60091616034504, 450.2501094161824) rotate(0, 0, 0)" width="129" height="19"><text text-decoration="none" x="0" fill="#4b4b4b" font-size="11pt" font-family="Lato"  y="17">Availability&#160;</text><text text-decoration="none" x="80" fill="#4b4b4b" font-size="11pt" font-family="Lato"  y="17">Zone&#160;</text><text text-decoration="none" x="119" fill="#4b4b4b" font-size="10pt" font-family="noto_regular"  y="17"></text></g></g><g id="atujyi0vep"><g transform="translate(224.85000000000002 425.2000000000001)"><path d="M 0,0 L 195.00890254974365,0 L 195.00890254974365,442.52034187316895 L 0,442.52034187316895 Z" fill="none" stroke="rgb(0, 0, 0)" stroke-width="1" stroke-linecap="round" stroke-linejoin="round"/><path d="M 0.5,0.5 L 194.50890254974365,0.5 L 194.50890254974365,442.02034187316895 L 0.5,442.02034187316895 Z" fill="rgb(255, 255, 255)" stroke="rgb(247, 152, 31)" stroke-width="1" stroke-linecap="round" stroke-linejoin="round" stroke-dasharray="10 5"/></g><g transform="translate(264.051789640769, 430.20022985167435) rotate(0, 0, 0)" width="129" height="19"><text text-decoration="none" x="0" fill="#4b4b4b" font-size="11pt" font-family="Lato"  y="17">Availability&#160;</text><text text-decoration="none" x="80" fill="#4b4b4b" font-size="11pt" font-family="Lato"  y="17">Zone&#160;</text><text text-decoration="none" x="119" fill="#4b4b4b" font-size="10pt" font-family="noto_regular"  y="17"></text></g></g><g id="1gsxchul6z"><g transform="translate(242.67307692307696 461.60000000000025)"><path d="M 0,0 L 155.05189657211304,0 L 155.05189657211304,377.56728649139404 L 0,377.56728649139404 Z" fill="none" stroke="rgb(0, 0, 0)" stroke-width="1" stroke-linecap="round" stroke-linejoin="round"/><path d="M 0,22 L 155.05189657211304,22 L 155.05189657211304,377.56728649139404 L 0,377.56728649139404 Z" fill="rgb(255, 255, 255)" stroke="rgb(0, 0, 0)" stroke-width="1" stroke-linecap="round" stroke-linejoin="round" stroke-dasharray="0 0"/></g><g transform="translate(276.0234848603873, 466.6002289298293) rotate(0, 0, 0)" width="94" height="19"><text text-decoration="none" x="0" fill="#4b4b4b" font-size="11pt" font-family="Lato"  y="17">VPC&#160;</text><text text-decoration="none" x="31" fill="#4b4b4b" font-size="11pt" font-family="Lato"  y="17">Subnet&#160;</text><text text-decoration="none" x="83" fill="#4b4b4b" font-size="10pt" font-family="noto_regular"  y="17"></text></g></g><g id="rg0z8vhlio"><g transform="translate(287.35000000000014 694.05)"><path d="M 46.5,-0.3 C 51.8,-0.3 56.1,3.9000000000000004 56.1,9.2 L 56.1,46.599999999999994 C 56.1,51.89999999999999 51.800000000000004,56.099999999999994 46.5,56.099999999999994 L 9.8,56.099999999999994 C 4.500000000000001,56.099999999999994 0.20000000000000107,51.89999999999999 0.20000000000000107,46.599999999999994 L 0.20000000000000107,9.2 C 0.20000000000000107,3.8999999999999995 4.500000000000001,-0.3000000000000007 9.8,-0.3000000000000007 C 9.8,-0.3 46.5,-0.3 46.5,-0.3 Z" fill="rgb(245, 133, 54)"/></g><g transform="translate(273.0000000000001, 760.05) rotate(0, 0, 0)" width="103" height="19"><text text-decoration="none" x="0" fill="#4b4b4b" font-size="11pt" font-family="Lato"  y="17">NAT&#160;</text><text text-decoration="none" x="33" fill="#4b4b4b" font-size="11pt" font-family="Lato"  y="17">Instance&#160;</text><text text-decoration="none" x="94" fill="#4b4b4b" font-size="10pt" font-family="noto_regular"  y="17"></text></g></g><g id="2bskduf1kz"><g transform="translate(287.35000000000014 529.05)"><path d="M 46.5,-0.3 C 51.8,-0.3 56.1,3.9000000000000004 56.1,9.2 L 56.1,46.599999999999994 C 56.1,51.89999999999999 51.800000000000004,56.099999999999994 46.5,56.099999999999994 L 9.8,56.099999999999994 C 4.500000000000001,56.099999999999994 0.20000000000000107,51.89999999999999 0.20000000000000107,46.599999999999994 L 0.20000000000000107,9.2 C 0.20000000000000107,3.8999999999999995 4.500000000000001,-0.3000000000000007 9.8,-0.3000000000000007 C 9.8,-0.3 46.5,-0.3 46.5,-0.3 Z" fill="rgb(245, 133, 54)"/></g><g transform="translate(275.0000000000001, 595.05) rotate(0, 0, 0)" width="100" height="19"><text text-decoration="none" x="0" fill="#4b4b4b" font-size="11pt" font-family="Lato"  y="17">Bastion&#160;</text><text text-decoration="none" x="56" fill="#4b4b4b" font-size="11pt" font-family="Lato"  y="17">Host&#160;</text><text text-decoration="none" x="92" fill="#4b4b4b" font-size="10pt" font-family="noto_regular"  y="17"></text></g></g><g id="1qm6swrxgr"><g><path d="M 389.99999999999994,961.1000000000001 L 389.99999999999994,855.575 L 353.67500000000007,855.575 L 317.35000000000014,855.575 L 317.35000000000014,749.05" fill="none" stroke="#a0a0a0" stroke-width="1.5" stroke-linecap="round" stroke-linejoin="round"/><path d="M 389.99999999999994,961.1000000000001 L 384.24999999999994,969.7956521739131 L 395.74999999999994,969.7956521739131 Z" fill="rgb(160,160,160)" stroke="#a0a0a0" stroke-width="1.5" stroke-linecap="round" stroke-linejoin="round"/></g></g><g id="1aivcwf35u"><g><path d="M 419.99999999999994,991.1000000000001 L 462.525,991.1000000000001 L 462.525,921.1250000000001 L 462.525,851.1500000000001 L 505.05,851.1500000000001" fill="none" stroke="#a0a0a0" stroke-width="1.5" stroke-linecap="round" stroke-linejoin="round" stroke-dasharray="10 7"/><path d="M 505.05,851.1500000000001 L 496.35434782608695,845.4000000000001 L 496.35434782608695,856.9000000000001 Z" fill="rgb(160,160,160)" stroke="#a0a0a0" stroke-width="1.5" stroke-linecap="round" stroke-linejoin="round"/></g></g><g id="18n4yhq85p"><g><path d="M 419.85,645.2 L 462.45000000000005,645.2 L 462.45000000000005,748.1750000000001 L 462.45000000000005,851.1500000000001 L 505.05,851.1500000000001" fill="none" stroke="#f7981f" stroke-width="1.5" stroke-linecap="round" stroke-linejoin="round"/></g></g><g id="1m9gefzm8s"><g><path d="M 454.99999999999994,411.1499999999999 L 437.42499999999995,411.1499999999999 L 437.42499999999995,408.175 L 437.42499999999995,405.2000000000001 L 381.1375,405.2000000000001 L 324.85,405.2000000000001 L 324.85,425.2000000000001" fill="none" stroke="#a0a0a0" stroke-width="1.5" stroke-linecap="round" stroke-linejoin="round"/><path d="M 454.99999999999994,411.1499999999999 L 463.695652173913,416.8999999999999 L 463.695652173913,405.3999999999999 Z" fill="rgb(160,160,160)" stroke="#a0a0a0" stroke-width="1.5" stroke-linecap="round" stroke-linejoin="round"/></g></g><g id="38wzn5k4t9"><g><path d="M 504.99999999999994,411.1499999999999 L 555,411.1499999999999 L 555,371.09999999999997" fill="none" stroke="#a0a0a0" stroke-width="1.5" stroke-linecap="round" stroke-linejoin="round" stroke-dasharray="10 7"/><path d="M 555,371.09999999999997 L 549.25,379.795652173913 L 560.75,379.795652173913 Z" fill="rgb(160,160,160)" stroke="#a0a0a0" stroke-width="1.5" stroke-linecap="round" stroke-linejoin="round"/></g></g><g id="4332mf4tcn"><g><path d="M 699.95,75 L 699.95,126.80000000000001 L 707.475,126.80000000000001 L 715,126.80000000000001 L 715,179.9" fill="none" stroke="#a0a0a0" stroke-width="1.5" stroke-linecap="round" stroke-linejoin="round" stroke-dasharray="10 7"/><path d="M 699.95,75 L 705.7,66.30434782608695 L 694.2,66.30434782608695 Z" fill="rgb(160,160,160)" stroke="#a0a0a0" stroke-width="1.5" stroke-linecap="round" stroke-linejoin="round"/></g></g><g id="1itjbjcc5f"><g><path d="M 555,316.09999999999997 L 555,50 L 664.95,50" fill="none" stroke="#a0a0a0" stroke-width="1.5" stroke-linecap="round" stroke-linejoin="round"/><path d="M 664.95,50 L 656.254347826087,44.25 L 656.254347826087,55.75 Z" fill="rgb(160,160,160)" stroke="#a0a0a0" stroke-width="1.5" stroke-linecap="round" stroke-linejoin="round"/></g></g><g id="1wgl7j4btq"><g transform="translate(755.1500000000001 1039.3000000000002)"><path d="M 0,0 L 205.0027060508728,-2.030130954422293e-14 L 205.0027060508728,142.85889387130734 L 1.4147240694993526e-14,142.85889387130737 Z" fill="none" stroke="rgb(0, 0, 0)" stroke-width="1" stroke-linecap="round" stroke-linejoin="round"/><path d="M 1,0.9999999999999999 L 204.0027060508728,0.9999999999999798 L 204.0027060508728,141.85889387130734 L 1.000000000000014,141.85889387130737 Z" fill="rgb(255, 255, 255)" stroke="rgb(0, 0, 0)" stroke-width="2" stroke-linecap="round" stroke-linejoin="round" stroke-dasharray="0 0"/><path d="M 1,0.9999999999999999 L 204.0027060508728,0.9999999999999798 L 204.0027060508728,141.85889387130734 L 1.000000000000014,141.85889387130737 Z" fill="none" stroke="rgb(238, 29, 36)" stroke-width="2" stroke-linecap="round" stroke-linejoin="round" stroke-dasharray="10 7"/></g><g transform="translate(825.5509292974706, 1044.300311301061) rotate(0, 0, 0)" width="67" height="19"><text text-decoration="none" x="0" fill="#4b4b4b" font-size="11pt" font-family="Lato"  y="17">Security&#160;</text><text text-decoration="none" x="59" fill="#4b4b4b" font-size="10pt" font-family="noto_regular"  y="17"></text></g></g><g id="2dewnxbtgi"><g transform="translate(785.1 1064.3000000000002)"><path d="M 0.3,12.3 L 0.3,12.3 L 0.3,12.3 Z" fill="rgb(25, 72, 111)"/><path d="M 22.3,0 C 34.4,0 44.3,2.5 44.3,5.6 C 44.3,8.7 34.5,11.2 22.299999999999997,11.2 C 10.199999999999998,11.2 0.29999999999999716,8.7 0.29999999999999716,5.6 C 0.4,2.5 10.2,0 22.3,0 Z" fill="rgb(46, 115, 183)"/><path d="M 44.2,10.2 C 43,13.6 34.400000000000006,15.6 22.200000000000003,15.6 C 10.100000000000003,15.6 1.9000000000000021,13.3 0.30000000000000426,10 L 0.30000000000000426,51.6 C 0.30000000000000426,55.2 10.100000000000005,58 22.300000000000004,58 C 34.400000000000006,58 44.300000000000004,55.1 44.300000000000004,51.6 L 44.2,10.2 Z" fill="rgb(46, 115, 183)"/><path d="M 8,21.9 L 16.2,21.9 L 22.4,40.099999999999994 L 22.5,40.099999999999994 L 28.4,21.899999999999995 L 36.599999999999994,21.899999999999995 L 36.599999999999994,48.39999999999999 L 31.099999999999994,48.39999999999999 L 31.099999999999994,29.6 L 31,29.6 L 24.5,48.3 L 20,48.3 L 13.5,29.699999999999996 L 13.4,29.699999999999996 L 13.4,48.3 L 8,48.3 L 8,21.9 L 8,21.9 Z" fill="rgb(255, 255, 255)"/></g><g transform="translate(759.275, 1132.3000000000002) rotate(0, 48, 0)" width="96" height="37"><text text-decoration="none" x="23" fill="#4b4b4b" font-size="11pt" font-family="Lato"  y="16">MySQL</text><text text-decoration="none" x="73" fill="#4b4b4b" font-size="11pt" font-family="Lato"  y="16"></text><text text-decoration="none" x="5" fill="#4b4b4b" font-size="11pt" font-family="Lato"  y="38">DB&#160;</text><text text-decoration="none" x="30" fill="#4b4b4b" font-size="11pt" font-family="Lato"  y="38">Instance&#160;</text><text text-decoration="none" x="91" fill="#4b4b4b" font-size="10pt" font-family="noto_regular"  y="38"></text></g></g><g id="1z1ffpwj4w"><g><path d="M 830.1,1094.3000000000002 L 944.675,1094.3000000000002 L 944.675,1092.7 L 944.675,1091.1 L 1059.95,1091.1" fill="none" stroke="#a0a0a0" stroke-width="1.5" stroke-linecap="round" stroke-linejoin="round"/><path d="M 830.1,1094.3000000000002 L 821.404347826087,1088.5500000000002 L 821.404347826087,1100.0500000000002 Z" fill="rgb(160,160,160)" stroke="#a0a0a0" stroke-width="1.5" stroke-linecap="round" stroke-linejoin="round"/><path d="M 1059.95,1091.1 L 1051.254347826087,1085.35 L 1051.254347826087,1096.85 Z" fill="rgb(160,160,160)" stroke="#a0a0a0" stroke-width="1.5" stroke-linecap="round" stroke-linejoin="round"/></g></g><g id="xhcl2f5om2"><g><path d="M 805.1,1064.3000000000002 L 805.1,1027.7250000000004 L 790.075,1027.7250000000004 L 775.05,1027.7250000000004 L 775.05,991.1000000000004" fill="none" stroke="#a0a0a0" stroke-width="1.5" stroke-linecap="round" stroke-linejoin="round" stroke-dasharray="10 7"/><path d="M 805.1,1064.3000000000002 L 799.35,1072.9956521739132 L 810.85,1072.9956521739132 Z" fill="rgb(160,160,160)" stroke="#a0a0a0" stroke-width="1.5" stroke-linecap="round" stroke-linejoin="round"/></g></g><g id="2nujwucfs4"><g transform="translate(553.55 1148.1)"><rect x="0" y="0" width="181.4309298992157" height="57.97972893714905" fill="rgba(255,255,255,0.01)" stroke="rgba(255,255,255,0.01)" stroke-width="NaN" stroke-linecap="round" stroke-linejoin="round"/></g><g transform="translate(557.7654649496078, 1157.0898644685744) rotate(0, 86.5, 20)" width="173" height="40"><text text-decoration="none" x="4.5" fill="rgb(75, 75, 75)" font-weight="bold" font-size="13pt" font-family="Lato"  y="19">Availability&#160;</text><text text-decoration="none" x="103.5" fill="rgb(75, 75, 75)" font-weight="bold" font-size="13pt" font-family="Lato"  y="19">Zone&#160;</text><text text-decoration="none" x="149.5" fill="rgb(75, 75, 75)" font-weight="bold" font-size="13pt" font-family="Lato"  y="19">-&#160;</text><text text-decoration="none" x="158.5" fill="rgb(75, 75, 75)" font-weight="bold" font-size="13pt" font-family="Lato"  y="19">1</text><text text-decoration="none" x="168.5" fill="#4b4b4b" font-size="10pt" font-family="noto_regular"  y="19"></text></g></g><g id="ak1etxzs5o"><g><path d="M 775.05,831.1000000000004 L 775.05,798.6000635385515 L 772.5,798.6000635385515 L 769.95,798.6000635385515 L 769.95,766.1" fill="none" stroke="#000000" stroke-width="1.5" stroke-linecap="round" stroke-linejoin="round" stroke-dasharray="10 7"/></g></g></svg>